<mxfile host="app.diagrams.net" agent="Mozilla/5.0 (Windows NT 10.0; Win64; x64) AppleWebKit/537.36 (KHTML, like Gecko) Chrome/131.0.0.0 Safari/537.36 Edg/131.0.0.0" version="24.7.17">
  <diagram name="Страница — 1" id="OeZrRyK-OKBzhoDvLomH">
    <mxGraphModel dx="564" dy="457" grid="0" gridSize="10" guides="1" tooltips="1" connect="1" arrows="1" fold="1" page="0" pageScale="1" pageWidth="827" pageHeight="1169" math="0" shadow="0">
      <root>
        <mxCell id="0" />
        <mxCell id="1" parent="0" />
        <mxCell id="JfeMI4auAfz_LH22IuSa-53" style="edgeStyle=none;curved=1;rounded=0;orthogonalLoop=1;jettySize=auto;html=1;exitX=1;exitY=0;exitDx=0;exitDy=0;entryX=0;entryY=0;entryDx=0;entryDy=0;fontSize=12;startSize=8;endSize=8;" edge="1" parent="1" source="JfeMI4auAfz_LH22IuSa-1" target="JfeMI4auAfz_LH22IuSa-36">
          <mxGeometry relative="1" as="geometry" />
        </mxCell>
        <mxCell id="JfeMI4auAfz_LH22IuSa-54" style="edgeStyle=none;curved=1;rounded=0;orthogonalLoop=1;jettySize=auto;html=1;exitX=1;exitY=0;exitDx=0;exitDy=0;entryX=0;entryY=0;entryDx=0;entryDy=0;fontSize=12;startSize=8;endSize=8;" edge="1" parent="1" source="JfeMI4auAfz_LH22IuSa-1" target="JfeMI4auAfz_LH22IuSa-5">
          <mxGeometry relative="1" as="geometry" />
        </mxCell>
        <mxCell id="JfeMI4auAfz_LH22IuSa-1" value="app.py" style="swimlane;fontStyle=0;childLayout=stackLayout;horizontal=1;startSize=26;fillColor=none;horizontalStack=0;resizeParent=1;resizeParentMax=0;resizeLast=0;collapsible=1;marginBottom=0;whiteSpace=wrap;html=1;" vertex="1" parent="1">
          <mxGeometry x="46" y="150" width="140" height="52" as="geometry" />
        </mxCell>
        <mxCell id="JfeMI4auAfz_LH22IuSa-2" value="main()" style="text;strokeColor=none;fillColor=none;align=left;verticalAlign=top;spacingLeft=4;spacingRight=4;overflow=hidden;rotatable=0;points=[[0,0.5],[1,0.5]];portConstraint=eastwest;whiteSpace=wrap;html=1;" vertex="1" parent="JfeMI4auAfz_LH22IuSa-1">
          <mxGeometry y="26" width="140" height="26" as="geometry" />
        </mxCell>
        <mxCell id="JfeMI4auAfz_LH22IuSa-5" value="MainController" style="swimlane;fontStyle=0;childLayout=stackLayout;horizontal=1;startSize=26;fillColor=none;horizontalStack=0;resizeParent=1;resizeParentMax=0;resizeLast=0;collapsible=1;marginBottom=0;whiteSpace=wrap;html=1;" vertex="1" parent="1">
          <mxGeometry x="262" y="150" width="190" height="150" as="geometry" />
        </mxCell>
        <mxCell id="JfeMI4auAfz_LH22IuSa-6" value="fetch_data()" style="text;strokeColor=none;fillColor=none;align=left;verticalAlign=top;spacingLeft=4;spacingRight=4;overflow=hidden;rotatable=0;points=[[0,0.5],[1,0.5]];portConstraint=eastwest;whiteSpace=wrap;html=1;" vertex="1" parent="JfeMI4auAfz_LH22IuSa-5">
          <mxGeometry y="26" width="190" height="26" as="geometry" />
        </mxCell>
        <mxCell id="JfeMI4auAfz_LH22IuSa-7" value="update(data)" style="text;strokeColor=none;fillColor=none;align=left;verticalAlign=top;spacingLeft=4;spacingRight=4;overflow=hidden;rotatable=0;points=[[0,0.5],[1,0.5]];portConstraint=eastwest;whiteSpace=wrap;html=1;" vertex="1" parent="JfeMI4auAfz_LH22IuSa-5">
          <mxGeometry y="52" width="190" height="26" as="geometry" />
        </mxCell>
        <mxCell id="JfeMI4auAfz_LH22IuSa-8" value="open_add_patient_window()&lt;div&gt;&lt;br&gt;&lt;div&gt;open_patient_list_window()&lt;/div&gt;&lt;/div&gt;" style="text;strokeColor=none;fillColor=none;align=left;verticalAlign=top;spacingLeft=4;spacingRight=4;overflow=hidden;rotatable=0;points=[[0,0.5],[1,0.5]];portConstraint=eastwest;whiteSpace=wrap;html=1;" vertex="1" parent="JfeMI4auAfz_LH22IuSa-5">
          <mxGeometry y="78" width="190" height="72" as="geometry" />
        </mxCell>
        <mxCell id="JfeMI4auAfz_LH22IuSa-9" value="PatientVIew" style="swimlane;fontStyle=0;childLayout=stackLayout;horizontal=1;startSize=26;fillColor=none;horizontalStack=0;resizeParent=1;resizeParentMax=0;resizeLast=0;collapsible=1;marginBottom=0;whiteSpace=wrap;html=1;" vertex="1" parent="1">
          <mxGeometry x="510" y="262" width="140" height="52" as="geometry" />
        </mxCell>
        <mxCell id="JfeMI4auAfz_LH22IuSa-10" value="add_patient()" style="text;strokeColor=none;fillColor=none;align=left;verticalAlign=top;spacingLeft=4;spacingRight=4;overflow=hidden;rotatable=0;points=[[0,0.5],[1,0.5]];portConstraint=eastwest;whiteSpace=wrap;html=1;" vertex="1" parent="JfeMI4auAfz_LH22IuSa-9">
          <mxGeometry y="26" width="140" height="26" as="geometry" />
        </mxCell>
        <mxCell id="JfeMI4auAfz_LH22IuSa-13" value="PatientsListView" style="swimlane;fontStyle=0;childLayout=stackLayout;horizontal=1;startSize=26;fillColor=none;horizontalStack=0;resizeParent=1;resizeParentMax=0;resizeLast=0;collapsible=1;marginBottom=0;whiteSpace=wrap;html=1;" vertex="1" parent="1">
          <mxGeometry x="510" y="398" width="140" height="52" as="geometry" />
        </mxCell>
        <mxCell id="JfeMI4auAfz_LH22IuSa-14" value="update_list()" style="text;strokeColor=none;fillColor=none;align=left;verticalAlign=top;spacingLeft=4;spacingRight=4;overflow=hidden;rotatable=0;points=[[0,0.5],[1,0.5]];portConstraint=eastwest;whiteSpace=wrap;html=1;" vertex="1" parent="JfeMI4auAfz_LH22IuSa-13">
          <mxGeometry y="26" width="140" height="26" as="geometry" />
        </mxCell>
        <mxCell id="JfeMI4auAfz_LH22IuSa-17" value="PatientListController" style="swimlane;fontStyle=0;childLayout=stackLayout;horizontal=1;startSize=26;fillColor=none;horizontalStack=0;resizeParent=1;resizeParentMax=0;resizeLast=0;collapsible=1;marginBottom=0;whiteSpace=wrap;html=1;" vertex="1" parent="1">
          <mxGeometry x="262" y="450" width="140" height="52" as="geometry" />
        </mxCell>
        <mxCell id="JfeMI4auAfz_LH22IuSa-18" value="get_patients()" style="text;strokeColor=none;fillColor=none;align=left;verticalAlign=top;spacingLeft=4;spacingRight=4;overflow=hidden;rotatable=0;points=[[0,0.5],[1,0.5]];portConstraint=eastwest;whiteSpace=wrap;html=1;" vertex="1" parent="JfeMI4auAfz_LH22IuSa-17">
          <mxGeometry y="26" width="140" height="26" as="geometry" />
        </mxCell>
        <mxCell id="JfeMI4auAfz_LH22IuSa-25" value="PatientController" style="swimlane;fontStyle=0;childLayout=stackLayout;horizontal=1;startSize=26;fillColor=none;horizontalStack=0;resizeParent=1;resizeParentMax=0;resizeLast=0;collapsible=1;marginBottom=0;whiteSpace=wrap;html=1;" vertex="1" parent="1">
          <mxGeometry x="262" y="353" width="140" height="52" as="geometry" />
        </mxCell>
        <mxCell id="JfeMI4auAfz_LH22IuSa-26" value="add_patient()" style="text;strokeColor=none;fillColor=none;align=left;verticalAlign=top;spacingLeft=4;spacingRight=4;overflow=hidden;rotatable=0;points=[[0,0.5],[1,0.5]];portConstraint=eastwest;whiteSpace=wrap;html=1;" vertex="1" parent="JfeMI4auAfz_LH22IuSa-25">
          <mxGeometry y="26" width="140" height="26" as="geometry" />
        </mxCell>
        <mxCell id="JfeMI4auAfz_LH22IuSa-40" value="Classname" style="swimlane;fontStyle=0;childLayout=stackLayout;horizontal=1;startSize=26;fillColor=none;horizontalStack=0;resizeParent=1;resizeParentMax=0;resizeLast=0;collapsible=1;marginBottom=0;whiteSpace=wrap;html=1;" vertex="1" parent="1">
          <mxGeometry x="597" y="637" width="140" height="104" as="geometry" />
        </mxCell>
        <mxCell id="JfeMI4auAfz_LH22IuSa-41" value="+ field: type" style="text;strokeColor=none;fillColor=none;align=left;verticalAlign=top;spacingLeft=4;spacingRight=4;overflow=hidden;rotatable=0;points=[[0,0.5],[1,0.5]];portConstraint=eastwest;whiteSpace=wrap;html=1;" vertex="1" parent="JfeMI4auAfz_LH22IuSa-40">
          <mxGeometry y="26" width="140" height="26" as="geometry" />
        </mxCell>
        <mxCell id="JfeMI4auAfz_LH22IuSa-42" value="+ field: type" style="text;strokeColor=none;fillColor=none;align=left;verticalAlign=top;spacingLeft=4;spacingRight=4;overflow=hidden;rotatable=0;points=[[0,0.5],[1,0.5]];portConstraint=eastwest;whiteSpace=wrap;html=1;" vertex="1" parent="JfeMI4auAfz_LH22IuSa-40">
          <mxGeometry y="52" width="140" height="26" as="geometry" />
        </mxCell>
        <mxCell id="JfeMI4auAfz_LH22IuSa-43" value="+ field: type" style="text;strokeColor=none;fillColor=none;align=left;verticalAlign=top;spacingLeft=4;spacingRight=4;overflow=hidden;rotatable=0;points=[[0,0.5],[1,0.5]];portConstraint=eastwest;whiteSpace=wrap;html=1;" vertex="1" parent="JfeMI4auAfz_LH22IuSa-40">
          <mxGeometry y="78" width="140" height="26" as="geometry" />
        </mxCell>
        <mxCell id="JfeMI4auAfz_LH22IuSa-48" value="Patients_DB" style="swimlane;fontStyle=0;childLayout=stackLayout;horizontal=1;startSize=26;fillColor=none;horizontalStack=0;resizeParent=1;resizeParentMax=0;resizeLast=0;collapsible=1;marginBottom=0;whiteSpace=wrap;html=1;" vertex="1" parent="1">
          <mxGeometry x="279" y="591" width="156" height="139" as="geometry" />
        </mxCell>
        <mxCell id="JfeMI4auAfz_LH22IuSa-49" value="add_observer()" style="text;strokeColor=none;fillColor=none;align=left;verticalAlign=top;spacingLeft=4;spacingRight=4;overflow=hidden;rotatable=0;points=[[0,0.5],[1,0.5]];portConstraint=eastwest;whiteSpace=wrap;html=1;" vertex="1" parent="JfeMI4auAfz_LH22IuSa-48">
          <mxGeometry y="26" width="156" height="26" as="geometry" />
        </mxCell>
        <mxCell id="JfeMI4auAfz_LH22IuSa-50" value="notify_observers()&lt;div&gt;get_data_from_db()()&lt;/div&gt;" style="text;strokeColor=none;fillColor=none;align=left;verticalAlign=top;spacingLeft=4;spacingRight=4;overflow=hidden;rotatable=0;points=[[0,0.5],[1,0.5]];portConstraint=eastwest;whiteSpace=wrap;html=1;" vertex="1" parent="JfeMI4auAfz_LH22IuSa-48">
          <mxGeometry y="52" width="156" height="41" as="geometry" />
        </mxCell>
        <mxCell id="JfeMI4auAfz_LH22IuSa-51" value="add_patient(patient_data)" style="text;strokeColor=none;fillColor=none;align=left;verticalAlign=top;spacingLeft=4;spacingRight=4;overflow=hidden;rotatable=0;points=[[0,0.5],[1,0.5]];portConstraint=eastwest;whiteSpace=wrap;html=1;" vertex="1" parent="JfeMI4auAfz_LH22IuSa-48">
          <mxGeometry y="93" width="156" height="46" as="geometry" />
        </mxCell>
        <mxCell id="JfeMI4auAfz_LH22IuSa-36" value="MainView" style="swimlane;fontStyle=0;childLayout=stackLayout;horizontal=1;startSize=26;fillColor=none;horizontalStack=0;resizeParent=1;resizeParentMax=0;resizeLast=0;collapsible=1;marginBottom=0;whiteSpace=wrap;html=1;" vertex="1" parent="1">
          <mxGeometry x="499" y="46" width="178" height="134" as="geometry" />
        </mxCell>
        <mxCell id="JfeMI4auAfz_LH22IuSa-37" value="set_controller()" style="text;strokeColor=none;fillColor=none;align=left;verticalAlign=top;spacingLeft=4;spacingRight=4;overflow=hidden;rotatable=0;points=[[0,0.5],[1,0.5]];portConstraint=eastwest;whiteSpace=wrap;html=1;" vertex="1" parent="JfeMI4auAfz_LH22IuSa-36">
          <mxGeometry y="26" width="178" height="26" as="geometry" />
        </mxCell>
        <mxCell id="JfeMI4auAfz_LH22IuSa-38" value="update_data()" style="text;strokeColor=none;fillColor=none;align=left;verticalAlign=top;spacingLeft=4;spacingRight=4;overflow=hidden;rotatable=0;points=[[0,0.5],[1,0.5]];portConstraint=eastwest;whiteSpace=wrap;html=1;" vertex="1" parent="JfeMI4auAfz_LH22IuSa-36">
          <mxGeometry y="52" width="178" height="26" as="geometry" />
        </mxCell>
        <mxCell id="JfeMI4auAfz_LH22IuSa-39" value="open-add_patient_window()&lt;div&gt;&lt;br&gt;&lt;div&gt;open_patients-list_window()&lt;/div&gt;&lt;div&gt;&lt;br&gt;&lt;/div&gt;&lt;/div&gt;" style="text;strokeColor=none;fillColor=none;align=left;verticalAlign=top;spacingLeft=4;spacingRight=4;overflow=hidden;rotatable=0;points=[[0,0.5],[1,0.5]];portConstraint=eastwest;whiteSpace=wrap;html=1;" vertex="1" parent="JfeMI4auAfz_LH22IuSa-36">
          <mxGeometry y="78" width="178" height="56" as="geometry" />
        </mxCell>
        <mxCell id="JfeMI4auAfz_LH22IuSa-52" style="edgeStyle=none;curved=1;rounded=0;orthogonalLoop=1;jettySize=auto;html=1;exitX=1;exitY=0;exitDx=0;exitDy=0;entryX=0;entryY=0.144;entryDx=0;entryDy=0;entryPerimeter=0;fontSize=12;startSize=8;endSize=8;" edge="1" parent="1" source="JfeMI4auAfz_LH22IuSa-5" target="JfeMI4auAfz_LH22IuSa-36">
          <mxGeometry relative="1" as="geometry" />
        </mxCell>
        <mxCell id="JfeMI4auAfz_LH22IuSa-67" value="" style="html=1;align=left;spacingLeft=2;endArrow=block;rounded=0;edgeStyle=orthogonalEdgeStyle;curved=0;rounded=0;fontSize=12;startSize=8;endSize=8;exitX=0;exitY=0.5;exitDx=0;exitDy=0;entryX=1;entryY=0.5;entryDx=0;entryDy=0;" edge="1" target="JfeMI4auAfz_LH22IuSa-26" parent="1" source="JfeMI4auAfz_LH22IuSa-10">
          <mxGeometry relative="1" as="geometry">
            <mxPoint x="450" y="582" as="sourcePoint" />
            <Array as="points">
              <mxPoint x="510" y="297" />
              <mxPoint x="480" y="297" />
              <mxPoint x="480" y="392" />
            </Array>
            <mxPoint x="448" y="608" as="targetPoint" />
          </mxGeometry>
        </mxCell>
        <mxCell id="JfeMI4auAfz_LH22IuSa-73" value="" style="html=1;align=left;spacingLeft=2;endArrow=block;rounded=0;edgeStyle=orthogonalEdgeStyle;curved=0;rounded=0;fontSize=12;startSize=8;endSize=8;exitX=0;exitY=0.5;exitDx=0;exitDy=0;entryX=0.999;entryY=0.521;entryDx=0;entryDy=0;entryPerimeter=0;" edge="1" target="JfeMI4auAfz_LH22IuSa-18" parent="1" source="JfeMI4auAfz_LH22IuSa-14">
          <mxGeometry relative="1" as="geometry">
            <mxPoint x="431" y="455" as="sourcePoint" />
            <Array as="points">
              <mxPoint x="461" y="437" />
              <mxPoint x="461" y="489" />
              <mxPoint x="424" y="489" />
            </Array>
            <mxPoint x="424" y="490" as="targetPoint" />
          </mxGeometry>
        </mxCell>
        <mxCell id="JfeMI4auAfz_LH22IuSa-74" value="" style="html=1;align=left;spacingLeft=2;endArrow=block;rounded=0;edgeStyle=orthogonalEdgeStyle;curved=0;rounded=0;fontSize=12;startSize=8;endSize=8;exitX=0;exitY=0.5;exitDx=0;exitDy=0;entryX=0;entryY=0.728;entryDx=0;entryDy=0;entryPerimeter=0;" edge="1" parent="1" target="JfeMI4auAfz_LH22IuSa-50">
          <mxGeometry relative="1" as="geometry">
            <mxPoint x="260" y="487" as="sourcePoint" />
            <Array as="points">
              <mxPoint x="211" y="487" />
              <mxPoint x="211" y="673" />
            </Array>
            <mxPoint x="152" y="540" as="targetPoint" />
          </mxGeometry>
        </mxCell>
        <mxCell id="JfeMI4auAfz_LH22IuSa-75" style="edgeStyle=none;curved=1;rounded=0;orthogonalLoop=1;jettySize=auto;html=1;exitX=1;exitY=0;exitDx=0;exitDy=0;entryX=0;entryY=0;entryDx=0;entryDy=0;fontSize=12;startSize=8;endSize=8;" edge="1" parent="1" source="JfeMI4auAfz_LH22IuSa-1" target="JfeMI4auAfz_LH22IuSa-48">
          <mxGeometry relative="1" as="geometry">
            <mxPoint x="196" y="160" as="sourcePoint" />
            <mxPoint x="272" y="160" as="targetPoint" />
          </mxGeometry>
        </mxCell>
        <mxCell id="JfeMI4auAfz_LH22IuSa-76" value="" style="html=1;align=left;spacingLeft=2;endArrow=block;rounded=0;edgeStyle=orthogonalEdgeStyle;curved=0;rounded=0;fontSize=12;startSize=8;endSize=8;exitX=0;exitY=0.5;exitDx=0;exitDy=0;" edge="1" parent="1">
          <mxGeometry relative="1" as="geometry">
            <mxPoint x="260" y="391" as="sourcePoint" />
            <Array as="points">
              <mxPoint x="197" y="391" />
              <mxPoint x="197" y="702" />
            </Array>
            <mxPoint x="275" y="702" as="targetPoint" />
          </mxGeometry>
        </mxCell>
        <mxCell id="JfeMI4auAfz_LH22IuSa-78" value="" style="html=1;align=left;spacingLeft=2;endArrow=block;rounded=0;edgeStyle=orthogonalEdgeStyle;curved=0;rounded=0;fontSize=12;startSize=8;endSize=8;exitX=1.012;exitY=0.681;exitDx=0;exitDy=0;entryX=0;entryY=0.25;entryDx=0;entryDy=0;exitPerimeter=0;" edge="1" parent="1" source="JfeMI4auAfz_LH22IuSa-8" target="JfeMI4auAfz_LH22IuSa-13">
          <mxGeometry relative="1" as="geometry">
            <mxPoint x="520" y="447" as="sourcePoint" />
            <Array as="points">
              <mxPoint x="471" y="277" />
              <mxPoint x="471" y="410" />
              <mxPoint x="510" y="410" />
            </Array>
            <mxPoint x="412" y="500" as="targetPoint" />
          </mxGeometry>
        </mxCell>
        <mxCell id="JfeMI4auAfz_LH22IuSa-79" value="" style="html=1;align=left;spacingLeft=2;endArrow=block;rounded=0;edgeStyle=orthogonalEdgeStyle;curved=0;rounded=0;fontSize=12;startSize=8;endSize=8;exitX=1.012;exitY=0.681;exitDx=0;exitDy=0;entryX=-0.001;entryY=0.102;entryDx=0;entryDy=0;exitPerimeter=0;entryPerimeter=0;" edge="1" parent="1" target="JfeMI4auAfz_LH22IuSa-9">
          <mxGeometry relative="1" as="geometry">
            <mxPoint x="454" y="242" as="sourcePoint" />
            <Array as="points">
              <mxPoint x="471" y="242" />
              <mxPoint x="471" y="267" />
              <mxPoint x="510" y="267" />
            </Array>
            <mxPoint x="510" y="376" as="targetPoint" />
          </mxGeometry>
        </mxCell>
        <mxCell id="JfeMI4auAfz_LH22IuSa-80" value="" style="html=1;align=left;spacingLeft=2;endArrow=block;rounded=0;edgeStyle=orthogonalEdgeStyle;curved=0;rounded=0;fontSize=12;startSize=8;endSize=8;exitX=1.012;exitY=0.681;exitDx=0;exitDy=0;entryX=1;entryY=0.25;entryDx=0;entryDy=0;exitPerimeter=0;" edge="1" parent="1" target="JfeMI4auAfz_LH22IuSa-9">
          <mxGeometry relative="1" as="geometry">
            <mxPoint x="677" y="137" as="sourcePoint" />
            <Array as="points">
              <mxPoint x="735" y="137" />
              <mxPoint x="735" y="275" />
            </Array>
            <mxPoint x="733" y="271" as="targetPoint" />
          </mxGeometry>
        </mxCell>
        <mxCell id="JfeMI4auAfz_LH22IuSa-81" value="" style="html=1;align=left;spacingLeft=2;endArrow=block;rounded=0;edgeStyle=orthogonalEdgeStyle;curved=0;rounded=0;fontSize=12;startSize=8;endSize=8;exitX=1.012;exitY=0.681;exitDx=0;exitDy=0;entryX=1;entryY=0.25;entryDx=0;entryDy=0;exitPerimeter=0;" edge="1" parent="1" target="JfeMI4auAfz_LH22IuSa-13">
          <mxGeometry relative="1" as="geometry">
            <mxPoint x="677" y="168" as="sourcePoint" />
            <Array as="points">
              <mxPoint x="687" y="168" />
              <mxPoint x="687" y="411" />
            </Array>
            <mxPoint x="733" y="302" as="targetPoint" />
          </mxGeometry>
        </mxCell>
      </root>
    </mxGraphModel>
  </diagram>
</mxfile>
